<svg xmlns="http://www.w3.org/2000/svg" viewBox="0 0 64 64" id="Award"><g data-name="Quality" fill="#000000" class="color000000 svgShape"><path fill="#ffffff" d="M38.21 35.54a1.57 1.57 0 0 1-.7-.17L32 32.47l-5.51 2.9a1.5 1.5 0 0 1-1.58-.12 1.49 1.49 0 0 1-.6-1.46l1.19-6.92a1.5 1.5 0 1 1 2.95.51l-.67 3.92 3.52-1.85a1.51 1.51 0 0 1 1.4 0l3.52 1.85-.67-3.92a1.46 1.46 0 0 1 .45-1.33l2.85-2.78-3.94-.57a1.5 1.5 0 0 1-1.13-.82L32 18.31l-1.76 3.57a1.5 1.5 0 0 1-1.13.82l-6.94 1a1.5 1.5 0 0 1-.44-3l6.17-.89 2.75-5.59a1.52 1.52 0 0 1 1.35-.8 1.5 1.5 0 0 1 1.34.84l2.76 5.59 6.17.89a1.5 1.5 0 0 1 .83 2.56l-4.46 4.35 1 6.14a1.51 1.51 0 0 1-1.48 1.75Z" class="colorffcf4a svgShape"></path><path fill="#676767" d="M32 44.07A18.64 18.64 0 1 1 40.76 9a1.5 1.5 0 1 1-1.41 2.64 15.66 15.66 0 1 0 4.79 4 1.5 1.5 0 0 1 2.33-1.89A18.64 18.64 0 0 1 32 44.07Z" class="color546e7a svgShape"></path><path fill="#676767" d="M26 49.74a5.54 5.54 0 0 1-4.71-2.62l-2.25-3.68-4.2-1a5.53 5.53 0 0 1-4.26-5.79l.34-4.29-2.81-3.21a5.53 5.53 0 0 1 0-7.19l2.8-3.27-.39-4.29a5.54 5.54 0 0 1 4.2-5.84l4.19-1 2.21-3.69A5.54 5.54 0 0 1 27.9 1.6l4 1.65 4-1.69a5.54 5.54 0 0 1 6.85 2.18L45 7.42l4.2 1a5.53 5.53 0 0 1 4.26 5.79l-.34 4.29 2.83 3.25a5.53 5.53 0 0 1 0 7.19l-2.8 3.27.39 4.29a5.54 5.54 0 0 1-4.2 5.84l-4.19 1L42.92 47a5.53 5.53 0 0 1-6.82 2.26l-4-1.65-4 1.69a5.36 5.36 0 0 1-2.1.44ZM15.38 11.48a2.52 2.52 0 0 0-1.91 2.65l.44 4.92a1.5 1.5 0 0 1-.35 1.11l-3.21 3.75a2.52 2.52 0 0 0 0 3.27l3.25 3.72A1.51 1.51 0 0 1 14 32l-.39 4.93a2.52 2.52 0 0 0 1.94 2.63l4.81 1.1a1.51 1.51 0 0 1 .95.68l2.58 4.21a2.5 2.5 0 0 0 3.11 1l4.54-1.94a1.51 1.51 0 0 1 1.16 0l4.57 1.89a2.51 2.51 0 0 0 3.1-1l2.53-4.24a1.51 1.51 0 0 1 .94-.68l4.8-1.16a2.5 2.5 0 0 0 1.91-2.65l-.44-4.92a1.5 1.5 0 0 1 .35-1.11L53.65 27a2.52 2.52 0 0 0 0-3.27L50.38 20a1.51 1.51 0 0 1-.36-1.1l.39-4.93a2.53 2.53 0 0 0-1.94-2.63l-4.81-1.1a1.47 1.47 0 0 1-.95-.68l-2.58-4.25a2.51 2.51 0 0 0-3.11-1l-4.54 1.95a1.51 1.51 0 0 1-1.16 0l-4.57-1.89a2.52 2.52 0 0 0-3.1 1l-2.53 4.27a1.57 1.57 0 0 1-.94.69Z" class="color546e7a svgShape"></path><path fill="#676767" d="M18.61 62.88a1.65 1.65 0 0 1-.71-.17 1.52 1.52 0 0 1-.79-1.33V47.1a1.5 1.5 0 0 1 3 0v11.47l11.05-7.43a1.51 1.51 0 0 1 1.68 0l7.43 5a1.5 1.5 0 1 1-1.68 2.49L32 54.19l-12.55 8.44a1.52 1.52 0 0 1-.84.25zm26.78 0a1.5 1.5 0 0 1-1.5-1.5V41.7a1.5 1.5 0 0 1 3 0v19.68a1.5 1.5 0 0 1-1.5 1.5z" class="color546e7a svgShape"></path></g></svg>