<svg xmlns="http://www.w3.org/2000/svg" fill-rule="evenodd" stroke-linejoin="round" stroke-miterlimit="2" clip-rule="evenodd" viewBox="0 0 96 96" id="fastdelivery"><path fill="none" d="M0 0h96v96H0z"></path><path d="M73.161 20.198H32.343a3.5 3.5 0 0 0-3.145 1.963L4.32 73.079a1.5 1.5 0 0 0 1.348 2.159h56.017c.573 0 1.096-.327 1.348-.842l18.575-38.019a1.5 1.5 0 1 0-2.695-1.317L60.749 72.238H8.07l23.823-48.76a.5.5 0 0 1 .449-.28h40.819a1.5 1.5 0 0 0 0-3Z" fill="#ffffff" class="color000000 svgShape"></path><path d="m46.061 37.426 7.363-15.07a1.501 1.501 0 0 0-2.696-1.317l-8.131 16.643a2.337 2.337 0 0 0 2.998 3.186l4.238-1.761a3.487 3.487 0 0 1 3.338.363l1.367.956a3.194 3.194 0 0 0 4.704-1.215l8.235-16.855a1.501 1.501 0 0 0-2.696-1.317l-8.235 16.855a.194.194 0 0 1-.127.103.192.192 0 0 1-.161-.029l-1.367-.956a6.486 6.486 0 0 0-6.209-.675l-2.621 1.089zM15 69h11.915a1.5 1.5 0 0 0 0-3H15a1.5 1.5 0 0 0 0 3zm6.633-6.128 1.789-3.663a1.5 1.5 0 1 0-2.695-1.317l-1.79 3.663a1.501 1.501 0 0 0 2.696 1.317zm6.511 0 1.79-3.663a1.5 1.5 0 0 0-2.695-1.317l-1.79 3.663a1.5 1.5 0 1 0 2.695 1.317zm-9.403 9.366c-4.48 0-9.924 3.593-12.113 8.073-1.23 2.517-1.211 4.804-.367 6.454.897 1.755 2.739 2.937 5.413 2.937 4.48 0 9.924-3.594 12.113-8.074 1.23-2.516 1.211-4.804.367-6.454-.897-1.754-2.739-2.936-5.413-2.936zm0 3c1.318 0 2.3.437 2.742 1.302.495.968.33 2.295-.391 3.771-1.712 3.503-5.915 6.391-9.418 6.391-1.318 0-2.3-.438-2.742-1.303-.495-.968-.33-2.295.391-3.771 1.712-3.503 5.915-6.39 9.418-6.39zm29.871-3c-4.48 0-9.924 3.593-12.113 8.073-1.229 2.517-1.211 4.804-.367 6.454.898 1.755 2.739 2.937 5.413 2.937 4.481 0 9.925-3.594 12.114-8.074 1.229-2.516 1.21-4.804.366-6.454-.897-1.754-2.738-2.936-5.413-2.936zm0 3c1.319 0 2.3.437 2.742 1.302.495.968.33 2.295-.391 3.771-1.711 3.503-5.915 6.391-9.418 6.391-1.318 0-2.299-.438-2.742-1.303-.495-.968-.33-2.295.392-3.771 1.711-3.503 5.914-6.39 9.417-6.39zm34.657-68.94c-6.75 0-12.231 5.481-12.231 12.231 0 1.471.562 3.514 1.49 5.782 1.985 4.854 5.608 10.886 7.762 14.3a3.486 3.486 0 0 0 5.961-.005c2.151-3.409 5.774-9.441 7.759-14.295.928-2.268 1.49-4.311 1.49-5.782 0-6.75-5.48-12.231-12.231-12.231zm0 3c5.095 0 9.231 4.137 9.231 9.231 0 1.622-.933 4.054-2.165 6.688-1.991 4.258-4.841 8.967-6.632 11.805l-.018.03a.486.486 0 0 1-.832 0l-.018-.03c-1.791-2.838-4.64-7.547-6.632-11.805-1.232-2.634-2.165-5.066-2.165-6.688 0-5.094 4.136-9.231 9.231-9.231zm0 3.547a5.107 5.107 0 0 0-5.105 5.105 5.107 5.107 0 0 0 5.105 5.105 5.107 5.107 0 0 0 5.105-5.105 5.107 5.107 0 0 0-5.105-5.105zm0 3a2.106 2.106 0 1 1-.001 4.211 2.106 2.106 0 0 1 .001-4.211zM2 23.198h21.198a1.5 1.5 0 0 0 0-3H2a1.5 1.5 0 0 0 0 3zm0 10.644h15.997a1.5 1.5 0 0 0 0-3H2a1.5 1.5 0 0 0 0 3zm0 10.645h10.797a1.5 1.5 0 0 0 0-3H2a1.5 1.5 0 0 0 0 3z" fill="#ffffff" class="color000000 svgShape"></path><path d="M2 75.238h65.605a1.501 1.501 0 0 0 0-3H2a1.5 1.5 0 0 0 0 3Z" fill="#ffffff" class="color000000 svgShape"></path></svg>