<svg xmlns="http://www.w3.org/2000/svg" viewBox="0 0 64 64" id="WorldwideDelivery"><g data-name="worldwide delivery" fill="#ffbf66" class="color000000 svgShape"><path d="M50 49a1 1 0 0 1-1-1V40a1 1 0 0 1 2 0v8A1 1 0 0 1 50 49zM47 56H45a1 1 0 0 1 0-2h2a1 1 0 0 1 0 2z" fill="#ffbf66" class="color000000 svgShape"></path><path d="M59,60H53a1,1,0,0,1,0-2h5V46H42V58h7a1,1,0,0,1,0,2H41a1,1,0,0,1-1-1V45a1,1,0,0,1,1-1H59a1,1,0,0,1,1,1V59A1,1,0,0,1,59,60Z" fill="#ffbf66" class="color000000 svgShape"></path><path d="M59,46H41a1,1,0,0,1-.9-.57,1,1,0,0,1,.12-1l4-5A1,1,0,0,1,45,39H55a1,1,0,0,1,.78.38l4,5a1,1,0,0,1,.12,1A1,1,0,0,1,59,46ZM43.08,44H56.92l-2.4-3h-9Z" fill="#ffbf66" class="color000000 svgShape"></path><path d="M30,56A25.91,25.91,0,0,1,4,31,1,1,0,0,1,6,31,24,24,0,0,0,40,51.82V45a1,1,0,0,1,.22-.62l4-5A1,1,0,0,1,45,39h7.25A24,24,0,0,0,30,6,23.94,23.94,0,0,0,8.45,19.44,23.23,23.23,0,0,0,7,23.28,1,1,0,0,1,5,22.72a25.65,25.65,0,0,1,1.61-4.16A26,26,0,0,1,19.79,6.08,25.75,25.75,0,0,1,30,4,26.14,26.14,0,0,1,53.42,18.71a26,26,0,0,1,.48,21.52c0,.06,0,.14-.09.23a1,1,0,0,1-.89.54H45.48L42,45.35v7.1a1,1,0,0,1-.56.9A25.71,25.71,0,0,1,30,56ZM52,39.65Z" fill="#ffbf66" class="color000000 svgShape"></path><path d="M5.18 28L5 28a1 1 0 0 1-.8-1.16 1.24 1.24 0 0 1 .06-.31 1 1 0 0 1 1.92.55 1 1 0 0 1 0 .12A1 1 0 0 1 5.18 28zM33 33a1 1 0 0 1-1-.83A5 5 0 0 0 27 28H22a1 1 0 0 1-.92-1.39l1.75-4.08A5.81 5.81 0 0 1 28.18 19a3.8 3.8 0 0 0 2.7-1.12 3.7 3.7 0 0 0 .5-.6A1 1 0 0 1 33 18.38a5.62 5.62 0 0 1-.74.92A5.78 5.78 0 0 1 28.18 21a3.82 3.82 0 0 0-3.51 2.31L23.52 26H27a7.05 7.05 0 0 1 7 5.83A1 1 0 0 1 33.14 33z" fill="#ffbf66" class="color000000 svgShape"></path><path d="M22.42 49a4.14 4.14 0 0 1-.85-.08A4.52 4.52 0 0 1 18 44.43V39.24a2.63 2.63 0 0 0-1.45-2.35A4.59 4.59 0 0 1 14 32.76V31a5 5 0 0 1 4-4.9V25a.93.93 0 0 0-.29-.69A1 1 0 0 0 17 24a3 3 0 0 1-3-3 1 1 0 0 0-1-1H7.55a1 1 0 0 1-.9-1.44A26 26 0 0 1 19.79 6.08 1 1 0 0 1 20.18 6h4.64a9.15 9.15 0 0 1 6.49 2.69 9.25 9.25 0 0 1 2.6 5.16A1 1 0 0 1 33.07 15a1 1 0 0 1-1.14-.84A7.22 7.22 0 0 0 24.82 8H20.39A24.1 24.1 0 0 0 9.21 18H13a3 3 0 0 1 3 3 .93.93 0 0 0 .29.69A1 1 0 0 0 17 22a3 3 0 0 1 3 3v2a1 1 0 0 1-1 1 3 3 0 0 0-3 3v1.76a2.61 2.61 0 0 0 1.45 2.35A4.6 4.6 0 0 1 20 39.24v5.19A2.56 2.56 0 0 0 22 47a2.43 2.43 0 0 0 2.8-1.71l.69-2.42A4 4 0 0 1 29.34 40a2.08 2.08 0 0 0 2.05-1.79l.34-2.37a1 1 0 1 1 2 .28l-.34 2.37a4.06 4.06 0 0 1-4 3.51 2 2 0 0 0-2 1.37l-.69 2.42A4.4 4.4 0 0 1 22.42 49zM53 40.89l-.2 0A6 6 0 0 1 48 35a2 2 0 0 0-2-2H42.5a3.5 3.5 0 1 1 0-7 2.6 2.6 0 0 0 2.44-1.69 9.74 9.74 0 0 1 7.41-6.16 1 1 0 0 1 1.07.55 26 26 0 0 1 .46 21.59A1 1 0 0 1 53 40.89zm-1-20.6A7.72 7.72 0 0 0 46.82 25a4.7 4.7 0 0 1-1.7 2.17A4.54 4.54 0 0 1 42.5 28a1.5 1.5 0 0 0 0 3H46a4 4 0 0 1 4 4 4 4 0 0 0 1.17 2.84 4 4 0 0 0 1.22.82A24.06 24.06 0 0 0 52 20.29zM10 56H9.92a6.43 6.43 0 0 1-4.13-1.75c-2.59-2.59-2.35-7.57.67-14A1 1 0 1 1 8.28 41c-2.6 5.55-3 9.83-1.07 11.75A4.4 4.4 0 0 0 10.08 54 1 1 0 0 1 10 56z" fill="#ffbf66" class="color000000 svgShape"></path><path d="M14 55.58a1 1 0 0 1-.22-2A26.8 26.8 0 0 0 19 51.72C24.89 49 31.58 44 37.79 37.79c.72-.71 1.4-1.42 2.07-2.14A1 1 0 0 1 41.32 37c-.69.72-1.39 1.45-2.11 2.18C32.84 45.58 26 50.67 19.8 53.54a28.69 28.69 0 0 1-5.62 2A.83.83 0 0 1 14 55.58zM48.45 27.6a1 1 0 0 1-.56-.17A1 1 0 0 1 47.62 26 50.27 50.27 0 0 0 51.72 19c2.6-5.55 3-9.83 1.07-11.75s-6.2-1.53-11.74 1.07a1 1 0 0 1-.84-1.82c6.44-3 11.41-3.25 14-.67s2.35 7.57-.67 14a54.83 54.83 0 0 1-4.26 7.37A1 1 0 0 1 48.45 27.6z" fill="#ffbf66" class="color000000 svgShape"></path><path d="M41,42a1,1,0,0,1-1-1V37H36a1,1,0,0,1,0-2h5a1,1,0,0,1,1,1v5A1,1,0,0,1,41,42Z" fill="#ffbf66" class="color000000 svgShape"></path></g></svg>